<!--
  - Copyright 2017-2025 Sweden Connect
  -
  - Licensed under the Apache License, Version 2.0 (the "License");
  - you may not use this file except in compliance with the License.
  - You may obtain a copy of the License at
  -
  -     http://www.apache.org/licenses/LICENSE-2.0
  -
  - Unless required by applicable law or agreed to in writing, software
  - distributed under the License is distributed on an "AS IS" BASIS,
  - WITHOUT WARRANTIES OR CONDITIONS OF ANY KIND, either express or implied.
  - See the License for the specific language governing permissions and
  - limitations under the License.
  -->
<svg xmlns="http://www.w3.org/2000/svg" id="flag-icon-css-gr" width="640" height="480">
  <defs>
    <clipPath id="a">
      <path fill-opacity=".7" d="M0 0h120v90H0z"/>
    </clipPath>
  </defs>
  <g fill-rule="evenodd" stroke-width="1pt" clip-path="url(#a)" transform="scale(5.33)">
    <path fill="#0d5eaf" d="M0 0h135v10H0z"/>
    <path fill="#fff" d="M0 10h135v10H0z"/>
    <path fill="#0d5eaf" d="M0 20h135v10H0z"/>
    <path fill="#fff" d="M0 30h135v10H0z"/>
    <path fill="#0d5eaf" d="M0 40h135v10H0z"/>
    <path fill="#fff" d="M0 50h135v10H0z"/>
    <path fill="#0d5eaf" d="M0 60h135v10H0z"/>
    <path fill="#fff" d="M0 70h135v10H0z"/>
    <path fill="#0d5eaf" d="M0 80h135v10H0zM0 0h50v50H0z"/>
    <g fill="#fff">
      <path d="M20 0h10v50H20z"/>
      <path d="M0 20h50v10H0z"/>
    </g>
  </g>
</svg>
